<svg width="23" height="23" viewBox="0 0 23 23" fill="none" xmlns="http://www.w3.org/2000/svg">
<path fill-rule="evenodd" clip-rule="evenodd" d="M13.6296 2.15675C13.9741 2.14397 14.2791 2.37753 14.3566 2.71339L16.3843 11.5H20.8438C21.2407 11.5 21.5625 11.8218 21.5625 12.2188C21.5625 12.6157 21.2407 12.9375 20.8438 12.9375H15.8125C15.4778 12.9375 15.1874 12.7065 15.1122 12.3804L13.7975 6.68361L11.4916 21.6718C11.4392 22.0125 11.1523 22.268 10.8079 22.2808C10.4634 22.2935 10.1584 22.06 10.0809 21.7241L8.05323 12.9375H3.59375C3.1968 12.9375 2.875 12.6157 2.875 12.2188C2.875 11.8218 3.1968 11.5 3.59375 11.5H8.625C8.95969 11.5 9.25009 11.731 9.32534 12.0571L10.64 17.7539L12.9459 2.76571C12.9983 2.42503 13.2852 2.16953 13.6296 2.15675Z" fill="#366B92"/>
</svg>
