<svg width="26" height="26" viewBox="0 0 26 26" fill="none" xmlns="http://www.w3.org/2000/svg">
<g clip-path="url(#clip0_207_10143)">
<path d="M6.49999 19.5L4.00833 21.9917C3.66527 22.3347 3.27238 22.4116 2.82966 22.2224C2.38694 22.0332 2.16594 21.6945 2.16666 21.2063V4.33333C2.16666 3.7375 2.37899 3.22725 2.80366 2.80258C3.22832 2.37792 3.73821 2.16594 4.33333 2.16667H15.275C15.2028 2.52778 15.1667 2.88889 15.1667 3.25C15.1667 3.61111 15.2028 3.97222 15.275 4.33333H4.33333V17.3333H21.6667V8.55833C22.0819 8.46806 22.4701 8.346 22.8312 8.19217C23.1924 8.03833 23.5264 7.83539 23.8333 7.58333V17.3333C23.8333 17.9292 23.621 18.4394 23.1963 18.8641C22.7717 19.2888 22.2618 19.5007 21.6667 19.5H6.49999ZM14.0833 15.1667C14.3903 15.1667 14.6477 15.0627 14.8557 14.8547C15.0637 14.6467 15.1674 14.3896 15.1667 14.0833C15.1667 13.7764 15.0627 13.5189 14.8547 13.3109C14.6467 13.1029 14.3895 12.9993 14.0833 13H7.58332C7.27638 13 7.01891 13.104 6.81091 13.312C6.60291 13.52 6.49927 13.7771 6.49999 14.0833C6.49999 14.3903 6.60399 14.6478 6.81199 14.8558C7.01999 15.0638 7.2771 15.1674 7.58332 15.1667H14.0833ZM18.4167 11.9167C18.7236 11.9167 18.9811 11.8127 19.1891 11.6047C19.3971 11.3967 19.5007 11.1396 19.5 10.8333C19.5 10.5264 19.396 10.2689 19.188 10.0609C18.98 9.85292 18.7229 9.74928 18.4167 9.75H7.58332C7.27638 9.75 7.01891 9.854 6.81091 10.062C6.60291 10.27 6.49927 10.5271 6.49999 10.8333C6.49999 11.1403 6.60399 11.3978 6.81199 11.6058C7.01999 11.8138 7.2771 11.9174 7.58332 11.9167H18.4167ZM16.25 6.5H7.58332C7.27638 6.5 7.01891 6.604 6.81091 6.812C6.60291 7.02 6.49927 7.27711 6.49999 7.58333C6.49999 7.89028 6.60399 8.14775 6.81199 8.35575C7.01999 8.56375 7.2771 8.66739 7.58332 8.66667H19.5V8.55833C18.8319 8.41389 18.2224 8.16544 17.6713 7.813C17.1203 7.46056 16.6465 7.02289 16.25 6.5ZM20.5833 6.5C19.6805 6.5 18.9132 6.18403 18.2812 5.55208C17.6493 4.92014 17.3333 4.15278 17.3333 3.25C17.3333 2.34722 17.6493 1.57986 18.2812 0.947917C18.9132 0.315972 19.6805 0 20.5833 0C21.4861 0 22.2535 0.315972 22.8854 0.947917C23.5174 1.57986 23.8333 2.34722 23.8333 3.25C23.8333 4.15278 23.5174 4.92014 22.8854 5.55208C22.2535 6.18403 21.4861 6.5 20.5833 6.5Z" fill="#366B92"/>
</g>
<defs>
<clipPath id="clip0_207_10143">
<rect width="26" height="26" fill="white"/>
</clipPath>
</defs>
</svg>
