<svg width="27" height="26" viewBox="0 0 27 26" fill="none" xmlns="http://www.w3.org/2000/svg">
<rect x="0.5" y="0.5" width="26" height="25" rx="7.5" fill="white" stroke="#89A54E"/>
<g clip-path="url(#clip0_289_1831)">
<path d="M7.5676 5.65988C7.49381 5.56496 7.40066 5.48682 7.29435 5.43066C7.18804 5.3745 7.071 5.34161 6.951 5.33416C6.831 5.32671 6.71078 5.34488 6.59835 5.38746C6.48591 5.43004 6.38381 5.49606 6.29885 5.58113L5.00635 6.87488C4.4026 7.47988 4.1801 8.33613 4.44385 9.08738C5.53852 12.1969 7.31922 15.02 9.65385 17.3474C11.9813 19.682 14.8044 21.4627 17.9139 22.5574C18.6651 22.8211 19.5214 22.5986 20.1264 21.9949L21.4189 20.7024C21.5039 20.6174 21.5699 20.5153 21.6125 20.4029C21.6551 20.2904 21.6733 20.1702 21.6658 20.0502C21.6584 19.9302 21.6255 19.8132 21.5693 19.7069C21.5132 19.6006 21.435 19.5074 21.3401 19.4336L18.4564 17.1911C18.3549 17.1125 18.237 17.0579 18.1114 17.0315C17.9858 17.005 17.8559 17.0075 17.7314 17.0386L14.9939 17.7224C14.6285 17.8137 14.2456 17.8089 13.8827 17.7083C13.5197 17.6078 13.1889 17.415 12.9226 17.1486L9.8526 14.0774C9.58606 13.8112 9.39301 13.4805 9.29224 13.1175C9.19148 12.7545 9.18643 12.3716 9.2776 12.0061L9.9626 9.26863C9.99373 9.14413 9.99619 9.01417 9.96977 8.88858C9.94335 8.76299 9.88876 8.64504 9.8101 8.54363L7.5676 5.65988ZM5.3551 4.63863C5.57384 4.41982 5.83664 4.25004 6.12602 4.14058C6.41541 4.03112 6.72478 3.98448 7.03358 4.00375C7.34238 4.02302 7.64354 4.10776 7.91708 4.25235C8.19061 4.39694 8.43026 4.59807 8.6201 4.84238L10.8626 7.72488C11.2739 8.25363 11.4189 8.94238 11.2564 9.59238L10.5726 12.3299C10.5372 12.4717 10.5392 12.6202 10.5781 12.761C10.6171 12.9018 10.6919 13.0302 10.7951 13.1336L13.8664 16.2049C13.9699 16.3083 14.0985 16.3832 14.2395 16.4222C14.3806 16.4612 14.5294 16.463 14.6714 16.4274L17.4076 15.7436C17.7284 15.6634 18.0632 15.6572 18.3867 15.7254C18.7102 15.7936 19.014 15.9345 19.2751 16.1374L22.1576 18.3799C23.1939 19.1861 23.2889 20.7174 22.3614 21.6436L21.0689 22.9361C20.1439 23.8611 18.7614 24.2674 17.4726 23.8136C14.1741 22.653 11.1792 20.7647 8.7101 18.2886C6.23421 15.8199 4.34586 12.8255 3.1851 9.52738C2.7326 8.23988 3.13885 6.85613 4.06385 5.93113L5.35635 4.63863H5.3551ZM16.7501 4.62488C16.7501 4.45912 16.8159 4.30015 16.9332 4.18294C17.0504 4.06573 17.2093 3.99988 17.3751 3.99988H22.3751C22.5409 3.99988 22.6998 4.06573 22.817 4.18294C22.9343 4.30015 23.0001 4.45912 23.0001 4.62488V9.62488C23.0001 9.79064 22.9343 9.94961 22.817 10.0668C22.6998 10.184 22.5409 10.2499 22.3751 10.2499C22.2093 10.2499 22.0504 10.184 21.9332 10.0668C21.8159 9.94961 21.7501 9.79064 21.7501 9.62488V6.13363L16.5676 11.3174C16.4502 11.4347 16.2911 11.5007 16.1251 11.5007C15.9591 11.5007 15.8 11.4347 15.6826 11.3174C15.5652 11.2 15.4993 11.0409 15.4993 10.8749C15.4993 10.7089 15.5652 10.5497 15.6826 10.4324L20.8664 5.24988H17.3751C17.2093 5.24988 17.0504 5.18403 16.9332 5.06682C16.8159 4.94961 16.7501 4.79064 16.7501 4.62488Z" fill="#89A54E"/>
</g>
<defs>
<clipPath id="clip0_289_1831">
<rect width="20" height="20" fill="white" transform="translate(3 4)"/>
</clipPath>
</defs>
</svg>
