<svg width="37" height="37" viewBox="0 0 37 37" fill="none" xmlns="http://www.w3.org/2000/svg">
<path d="M35.8438 34.6875H33.5312V31.2188C33.5312 30.2988 33.1658 29.4165 32.5153 28.766C31.8648 28.1155 30.9825 27.75 30.0625 27.75H25.4375C24.5175 27.75 23.6352 28.1155 22.9847 28.766C22.3342 29.4165 21.9688 30.2988 21.9688 31.2188V34.6875H19.6562V31.2188C19.6562 29.6855 20.2653 28.215 21.3495 27.1308C22.4337 26.0466 23.9042 25.4375 25.4375 25.4375H30.0625C31.5958 25.4375 33.0663 26.0466 34.1505 27.1308C35.2347 28.215 35.8438 29.6855 35.8438 31.2188V34.6875Z" fill="#366B92"/>
<path d="M27.75 13.875C28.4361 13.875 29.1067 14.0784 29.6771 14.4596C30.2476 14.8407 30.6922 15.3825 30.9547 16.0163C31.2173 16.6501 31.2859 17.3476 31.1521 18.0205C31.0183 18.6933 30.6879 19.3114 30.2028 19.7965C29.7177 20.2816 29.0996 20.612 28.4267 20.7458C27.7539 20.8797 27.0564 20.811 26.4226 20.5485C25.7887 20.2859 25.247 19.8413 24.8658 19.2709C24.4847 18.7005 24.2813 18.0298 24.2813 17.3438C24.2813 16.4238 24.6467 15.5415 25.2972 14.891C25.9477 14.2405 26.83 13.875 27.75 13.875ZM27.75 11.5625C26.6066 11.5625 25.4888 11.9016 24.5381 12.5368C23.5874 13.1721 22.8464 14.075 22.4088 15.1314C21.9713 16.1877 21.8568 17.3502 22.0798 18.4716C22.3029 19.5931 22.8535 20.6232 23.662 21.4317C24.4706 22.2402 25.5007 22.7908 26.6221 23.0139C27.7436 23.237 28.906 23.1225 29.9624 22.6849C31.0188 22.2474 31.9217 21.5064 32.5569 20.5556C33.1922 19.6049 33.5313 18.4872 33.5313 17.3438C33.5313 15.8105 32.9222 14.34 31.838 13.2558C30.7538 12.1716 29.2833 11.5625 27.75 11.5625Z" fill="#366B92"/>
<path d="M17.3438 25.4375H15.0312V21.9688C15.0312 21.0488 14.6658 20.1665 14.0153 19.516C13.3648 18.8655 12.4825 18.5 11.5625 18.5H6.9375C6.01753 18.5 5.13524 18.8655 4.48472 19.516C3.83421 20.1665 3.46875 21.0488 3.46875 21.9688V25.4375H1.15625V21.9688C1.15625 20.4355 1.76534 18.965 2.84954 17.8808C3.93373 16.7966 5.40422 16.1875 6.9375 16.1875H11.5625C13.0958 16.1875 14.5663 16.7966 15.6505 17.8808C16.7347 18.965 17.3438 20.4355 17.3438 21.9688V25.4375Z" fill="#366B92"/>
<path d="M9.25 4.625C9.93606 4.625 10.6067 4.82844 11.1771 5.20959C11.7476 5.59074 12.1922 6.13249 12.4547 6.76632C12.7173 7.40015 12.7859 8.0976 12.6521 8.77047C12.5183 9.44334 12.1879 10.0614 11.7028 10.5465C11.2177 11.0316 10.5996 11.362 9.92672 11.4958C9.25385 11.6297 8.5564 11.561 7.92257 11.2985C7.28874 11.0359 6.74699 10.5913 6.36584 10.0209C5.98469 9.45045 5.78125 8.7798 5.78125 8.09375C5.78125 7.17378 6.14671 6.29149 6.79723 5.64097C7.44774 4.99046 8.33003 4.625 9.25 4.625ZM9.25 2.3125C8.10658 2.3125 6.98883 2.65156 6.03811 3.28682C5.08739 3.92207 4.34639 4.82498 3.90882 5.88136C3.47125 6.93775 3.35677 8.10016 3.57984 9.22162C3.80291 10.3431 4.35352 11.3732 5.16204 12.1817C5.97056 12.9902 7.00068 13.5408 8.12214 13.7639C9.24359 13.987 10.406 13.8725 11.4624 13.4349C12.5188 12.9974 13.4217 12.2564 14.0569 11.3056C14.6922 10.3549 15.0313 9.23717 15.0313 8.09375C15.0313 6.56047 14.4222 5.08998 13.338 4.00579C12.2538 2.92159 10.7833 2.3125 9.25 2.3125Z" fill="#366B92"/>
</svg>
