<svg width="19" height="24" viewBox="0 0 19 24" fill="none" xmlns="http://www.w3.org/2000/svg">
<path d="M18.24 2.16H14.25V0.24C14.25 0.108 14.1645 0 14.06 0H12.73C12.6255 0 12.54 0.108 12.54 0.24V2.16H6.46V0.24C6.46 0.108 6.3745 0 6.27 0H4.94C4.8355 0 4.75 0.108 4.75 0.24V2.16H0.76C0.339625 2.16 0 2.589 0 3.12V23.04C0 23.571 0.339625 24 0.76 24H18.24C18.6604 24 19 23.571 19 23.04V3.12C19 2.589 18.6604 2.16 18.24 2.16ZM17.29 21.84H1.71V10.44H17.29V21.84ZM17.29 8.4H1.71V4.32H4.75V5.76C4.75 5.892 4.8355 6 4.94 6H6.27C6.3745 6 6.46 5.892 6.46 5.76V4.32H12.54V5.76C12.54 5.892 12.6255 6 12.73 6H14.06C14.1645 6 14.25 5.892 14.25 5.76V4.32H17.29V8.4Z" fill="#366B92"/>
</svg>
