<svg width="13" height="13" viewBox="0 0 13 13" fill="none" xmlns="http://www.w3.org/2000/svg">
<path fill-rule="evenodd" clip-rule="evenodd" d="M6.90625 3.65625C6.23315 3.65625 5.6875 4.2019 5.6875 4.875C5.6875 5.5481 6.23315 6.09375 6.90625 6.09375C7.57935 6.09375 8.125 5.5481 8.125 4.875C8.125 4.2019 7.57935 3.65625 6.90625 3.65625ZM4.875 4.875C4.875 3.75317 5.78442 2.84375 6.90625 2.84375C8.02808 2.84375 8.9375 3.75317 8.9375 4.875C8.9375 5.99683 8.02808 6.90625 6.90625 6.90625C5.78442 6.90625 4.875 5.99683 4.875 4.875Z" fill="#366B92"/>
<path fill-rule="evenodd" clip-rule="evenodd" d="M6.90754 1.625C4.74478 1.625 2.93367 3.77967 4.03095 6.33997C4.63175 7.74185 5.43593 9.25044 6.09324 10.4134C6.41505 10.9827 6.70042 11.4671 6.90754 11.8126C7.11467 11.4671 7.40004 10.9827 7.72185 10.4134C8.37916 9.25044 9.18334 7.74185 9.78414 6.33997C10.8814 3.77967 9.07031 1.625 6.90754 1.625ZM6.90754 12.5938C6.56304 12.8091 6.56302 12.809 6.56299 12.809L6.55676 12.799L6.53907 12.7705C6.5236 12.7455 6.50088 12.7087 6.4716 12.661C6.41304 12.5655 6.32824 12.4263 6.22276 12.2505C6.01185 11.899 5.71804 11.4008 5.38591 10.8132C4.72291 9.64018 3.90209 8.1019 3.28414 6.66003C1.94391 3.53283 4.19531 0.8125 6.90754 0.8125C9.61978 0.8125 11.8712 3.53283 10.5309 6.66003C9.913 8.1019 9.09218 9.64018 8.42918 10.8132C8.09705 11.4008 7.80324 11.899 7.59233 12.2505C7.48685 12.4263 7.40205 12.5655 7.34349 12.661C7.31421 12.7087 7.29149 12.7455 7.27601 12.7705L7.25833 12.799L7.25219 12.8088C7.25216 12.8089 7.25204 12.8091 6.90754 12.5938ZM6.90754 12.5938L7.25219 12.8088C7.17795 12.9276 7.04761 13 6.90754 13C6.76747 13 6.63723 12.9278 6.56299 12.809L6.90754 12.5938Z" fill="#366B92"/>
</svg>
