<svg width="49" height="48" viewBox="0 0 49 48" fill="none" xmlns="http://www.w3.org/2000/svg">
<g clip-path="url(#clip0_180_9066)">
<path fill-rule="evenodd" clip-rule="evenodd" d="M27.0376 25.27L32.7676 31L31.2776 32.49L25.5476 26.76C24.4776 27.53 23.1876 28 21.7776 28C18.1876 28 15.2776 25.09 15.2776 21.5C15.2776 17.91 18.1876 15 21.7776 15C25.3676 15 28.2776 17.91 28.2776 21.5C28.2776 22.91 27.8076 24.2 27.0376 25.27ZM21.7776 17C19.2876 17 17.2776 19.01 17.2776 21.5C17.2776 23.99 19.2876 26 21.7776 26C24.2676 26 26.2776 23.99 26.2776 21.5C26.2776 19.01 24.2676 17 21.7776 17Z" fill="#366B92"/>
</g>
<defs>
<clipPath id="clip0_180_9066">
<rect x="4.27762" y="4" width="40" height="40" rx="20" fill="white"/>
</clipPath>
</defs>
</svg>
