<svg width="10" height="8" viewBox="0 0 10 8" fill="none" xmlns="http://www.w3.org/2000/svg">
<path d="M4.65946 0.237396C4.76662 -0.0791317 5.2332 -0.0791321 5.34036 0.237395L6.12508 2.55531C6.173 2.69687 6.31045 2.79271 6.46553 2.79271H9.00494C9.35171 2.79271 9.49589 3.21859 9.21535 3.41422L7.16092 4.84677C7.03546 4.93425 6.98296 5.08932 7.03088 5.23088L7.8156 7.54879C7.92276 7.86532 7.54529 8.12853 7.26474 7.93291L5.21032 6.50036C5.08486 6.41287 4.91497 6.41287 4.7895 6.50036L2.73508 7.93291C2.45453 8.12853 2.07706 7.86532 2.18422 7.54879L2.96894 5.23088C3.01686 5.08932 2.96436 4.93425 2.8389 4.84677L0.784477 3.41422C0.503931 3.21859 0.648113 2.79271 0.994886 2.79271H3.53429C3.68937 2.79271 3.82682 2.69687 3.87474 2.55531L4.65946 0.237396Z" fill="#FFB400"/>
</svg>
