<svg width="15" height="15" viewBox="0 0 15 15" fill="none" xmlns="http://www.w3.org/2000/svg">
<circle cx="7.5" cy="7.5" r="7.5" fill="#ED8B1B"/>
<path d="M10.217 7.4447C10.217 7.6968 10.4233 7.90307 10.6754 7.90307H11.5922C11.8443 7.90307 12.0505 7.6968 12.0505 7.4447C12.0505 7.1926 11.8443 6.98633 11.5922 6.98633H10.6754C10.4233 6.98633 10.217 7.1926 10.217 7.4447Z" fill="white"/>
<path d="M9.57068 9.65396C9.41941 9.85564 9.46067 10.1352 9.66235 10.2819C9.90529 10.4607 10.162 10.6532 10.4049 10.8366C10.6066 10.9878 10.8908 10.9466 11.0375 10.7449C11.0375 10.7403 11.042 10.7403 11.042 10.7357C11.1933 10.534 11.1521 10.2498 10.9504 10.1032C10.7074 9.91981 10.4507 9.7273 10.2124 9.54853C10.0107 9.39727 9.72652 9.44311 9.57526 9.64479C9.57526 9.64937 9.57068 9.65396 9.57068 9.65396Z" fill="white"/>
<path d="M11.0467 4.14906C11.0467 4.14447 11.0421 4.14447 11.0421 4.13989C10.8909 3.93821 10.6067 3.89695 10.4096 4.04822C10.1666 4.23156 9.90537 4.42408 9.66701 4.60743C9.46533 4.75869 9.42866 5.04288 9.57992 5.23998C9.57992 5.24456 9.58451 5.24456 9.58451 5.24915C9.73577 5.45083 10.0154 5.49208 10.2171 5.34082C10.46 5.16206 10.7167 4.96496 10.9596 4.78161C11.1567 4.63493 11.1934 4.35074 11.0467 4.14906Z" fill="white"/>
<path d="M5.63328 6.06994H3.7998C3.29559 6.06994 2.88306 6.48247 2.88306 6.98668V7.90342C2.88306 8.40763 3.29559 8.82016 3.7998 8.82016H4.25817V10.1953C4.25817 10.4474 4.46444 10.6536 4.71654 10.6536C4.96864 10.6536 5.17491 10.4474 5.17491 10.1953V8.82016H5.63328L7.92514 10.1953V4.69482L5.63328 6.06994Z" fill="white"/>
<path d="M9.0711 7.44472C9.0711 6.83509 8.80525 6.28504 8.38354 5.90918V8.97568C8.80525 8.6044 9.0711 8.05436 9.0711 7.44472Z" fill="white"/>
</svg>
