<svg width="39" height="39" viewBox="0 0 39 39" fill="none" xmlns="http://www.w3.org/2000/svg">
<path d="M37.6674 31.2215L31.0794 24.624L26.012 22.5274C27.6992 20.1246 28.6032 17.2579 28.5999 14.3204C28.5999 6.42411 22.185 0 14.3 0C6.41492 0 0 6.42411 0 14.3204C0 22.2168 6.41492 28.6409 14.3 28.6409C17.2588 28.6443 20.145 27.7234 22.5565 26.0065L24.6446 31.0675L31.2324 37.6653C31.6549 38.0884 32.1565 38.4241 32.7085 38.6531C33.2606 38.8821 33.8523 39 34.4498 39C35.0473 39 35.639 38.8822 36.191 38.6532C36.7431 38.4242 37.2447 38.0886 37.6672 37.6655C38.0897 37.2424 38.4249 36.7401 38.6536 36.1873C38.8823 35.6344 39 35.0419 39 34.4436C39 33.8452 38.8823 33.2526 38.6537 32.6998C38.4251 32.147 38.0899 31.6446 37.6674 31.2215ZM2.59999 14.3204C2.59999 7.85997 7.84873 2.60372 14.3 2.60372C20.7512 2.60372 25.9999 7.85997 25.9999 14.3204C25.9999 20.7809 20.7512 26.0372 14.3 26.0372C7.84873 26.0372 2.59999 20.7809 2.59999 14.3204ZM35.8288 35.8242C35.4628 36.1899 34.9669 36.3953 34.4499 36.3953C33.9329 36.3953 33.437 36.1899 33.071 35.8242L26.8496 29.5939L24.9082 24.888L29.6074 26.8322L35.829 33.0626C36.1941 33.4291 36.3991 33.9257 36.3991 34.4434C36.3991 34.9612 36.194 35.4577 35.8288 35.8242Z" fill="white"/>
</svg>
