<svg width="22" height="22" viewBox="0 0 22 22" fill="none" xmlns="http://www.w3.org/2000/svg">
<path d="M16.5 11.0001C16.5 11.5042 16.9125 11.9167 17.4167 11.9167H19.25C19.7542 11.9167 20.1667 11.5042 20.1667 11.0001C20.1667 10.4959 19.7542 10.0834 19.25 10.0834H17.4167C16.9125 10.0834 16.5 10.4959 16.5 11.0001Z" fill="#366B92"/>
<path d="M15.2076 15.4182C14.9051 15.8216 14.9876 16.3807 15.3909 16.6741C15.8767 17.0316 16.3901 17.4166 16.8759 17.7832C17.2792 18.0857 17.8476 18.0032 18.1409 17.5999C18.1409 17.5907 18.1501 17.5907 18.1501 17.5816C18.4526 17.1782 18.3701 16.6099 17.9667 16.3166C17.4809 15.9499 16.9676 15.5649 16.4909 15.2074C16.0876 14.9049 15.5192 14.9966 15.2167 15.3999C15.2167 15.4091 15.2076 15.4182 15.2076 15.4182Z" fill="#366B92"/>
<path d="M18.1592 4.40923C18.1592 4.40006 18.1501 4.40006 18.1501 4.39089C17.8476 3.98756 17.2792 3.90506 16.8851 4.20756C16.3992 4.57423 15.8767 4.95923 15.4001 5.32589C14.9967 5.62839 14.9234 6.19673 15.2259 6.59089C15.2259 6.60006 15.2351 6.60006 15.2351 6.60923C15.5376 7.01256 16.0967 7.09506 16.5001 6.79256C16.9859 6.43506 17.4992 6.04089 17.9851 5.67423C18.3792 5.38089 18.4526 4.81256 18.1592 4.40923Z" fill="#366B92"/>
<path d="M7.3333 8.25H3.66663C2.6583 8.25 1.8333 9.075 1.8333 10.0833V11.9167C1.8333 12.925 2.6583 13.75 3.66663 13.75H4.5833V16.5C4.5833 17.0042 4.9958 17.4167 5.49997 17.4167C6.00413 17.4167 6.41663 17.0042 6.41663 16.5V13.75H7.3333L11.9166 16.5V5.5L7.3333 8.25Z" fill="#366B92"/>
<path d="M14.2084 11C14.2084 9.78084 13.6767 8.68084 12.8334 7.92917V14.0617C13.6767 13.3192 14.2084 12.2192 14.2084 11Z" fill="#366B92"/>
</svg>
