<svg width="27" height="16" viewBox="0 0 27 16" fill="none" xmlns="http://www.w3.org/2000/svg">
<path d="M11.4834 0.0248858L9.32766 2.14433C8.68219 2.31853 8.08313 2.6379 7.57688 3.07755L6.45469 4.06054C6.02437 4.43797 5.46328 4.64536 4.88531 4.64536H4.05V9.95434C4.91062 9.97922 5.72906 10.3235 6.34078 10.9249L7.84266 12.4014L8.13797 12.6918L9.27703 13.8116C9.53859 14.0688 9.96891 14.0688 10.2305 13.8116C10.3022 13.7411 10.357 13.6582 10.3866 13.5711C10.5047 13.2517 10.7789 13.0111 11.1164 12.9365C11.4539 12.8618 11.8083 12.9614 12.053 13.2061L12.5086 13.6457C12.998 14.1269 13.7911 14.1269 14.2762 13.6457C14.5041 13.4218 14.6264 13.1356 14.6391 12.8411C14.6559 12.4761 14.8753 12.1526 15.2128 11.995C15.5503 11.8374 15.9427 11.8705 16.2422 12.0821C16.6388 12.36 17.1914 12.3226 17.5458 11.9742C17.9423 11.5844 17.9423 10.9539 17.5458 10.5682L14.348 7.42428L12.8377 8.793C11.6859 9.8382 9.91828 9.85479 8.74547 8.83033C7.40813 7.66069 7.37859 5.62005 8.67797 4.41309L11.6353 1.66735C12.7912 0.59726 14.3184 0 15.9089 0C17.4319 0 18.9042 0.551636 20.0391 1.54292L21.3089 2.65449H22.95H24.6375H26.325C26.6963 2.65449 27 2.95312 27 3.31811V11.9452C27 12.6793 26.3967 13.2724 25.65 13.2724H24.3C23.8022 13.2724 23.3634 13.007 23.1314 12.6088H19.5497C19.4062 12.8867 19.2164 13.1522 18.9802 13.3844C18.2588 14.0937 17.2589 14.3716 16.3223 14.2181C16.1705 14.5209 15.9637 14.8029 15.7064 15.0559C14.5547 16.1882 12.7533 16.3002 11.4708 15.3919C10.4119 16.2546 8.83406 16.2007 7.84266 15.2218L6.70781 14.102L6.4125 13.8116L4.91062 12.3351C4.67859 12.107 4.37484 11.9742 4.05 11.9494C4.05 12.6793 3.4425 13.2724 2.7 13.2724H1.35C0.603281 13.2724 0 12.6793 0 11.9452V3.31811C0 2.95312 0.30375 2.65449 0.675 2.65449H2.3625H4.05H4.88531C4.96969 2.65449 5.04984 2.62546 5.10891 2.57154L6.22688 1.59269C7.40391 0.568227 8.91844 0 10.492 0H10.9266C11.1122 0 11.302 0.00829522 11.4834 0.0248858ZM22.95 10.618V4.64536H20.925C20.6761 4.64536 20.4356 4.55411 20.2542 4.39235L18.6975 3.03192C17.9297 2.36001 16.9383 1.99087 15.9089 1.99087C14.8373 1.99087 13.808 2.39319 13.0275 3.11488L10.0702 5.86062C9.63562 6.26708 9.64406 6.95144 10.0913 7.34132C10.4836 7.68558 11.0784 7.67728 11.4623 7.32888L14.4956 4.57485C14.9048 4.20156 15.5461 4.22644 15.9258 4.63291C16.3055 5.03938 16.2802 5.66568 15.8667 6.03896L15.833 6.07214L18.9717 9.15799C19.3936 9.57275 19.6678 10.0829 19.7902 10.6138H22.95V10.618ZM2.7 11.2816C2.7 11.1056 2.62888 10.9368 2.5023 10.8123C2.37571 10.6879 2.20402 10.618 2.025 10.618C1.84598 10.618 1.67429 10.6879 1.5477 10.8123C1.42112 10.9368 1.35 11.1056 1.35 11.2816C1.35 11.4576 1.42112 11.6264 1.5477 11.7508C1.67429 11.8753 1.84598 11.9452 2.025 11.9452C2.20402 11.9452 2.37571 11.8753 2.5023 11.7508C2.62888 11.6264 2.7 11.4576 2.7 11.2816ZM24.975 11.9452C25.154 11.9452 25.3257 11.8753 25.4523 11.7508C25.5789 11.6264 25.65 11.4576 25.65 11.2816C25.65 11.1056 25.5789 10.9368 25.4523 10.8123C25.3257 10.6879 25.154 10.618 24.975 10.618C24.796 10.618 24.6243 10.6879 24.4977 10.8123C24.3711 10.9368 24.3 11.1056 24.3 11.2816C24.3 11.4576 24.3711 11.6264 24.4977 11.7508C24.6243 11.8753 24.796 11.9452 24.975 11.9452Z" fill="#366B92"/>
</svg>
